<?xml version="1.0" encoding="UTF-8" standalone="no"?>
<svg
   xmlns:dc="http://purl.org/dc/elements/1.1/"
   xmlns:cc="http://creativecommons.org/ns#"
   xmlns:rdf="http://www.w3.org/1999/02/22-rdf-syntax-ns#"
   xmlns:svg="http://www.w3.org/2000/svg"
   xmlns="http://www.w3.org/2000/svg"
   version="1.1"
   id="svg2"
   viewBox="0 0 400.00001 300"
   height="300"
   width="400">
  <defs
     id="defs4" />
  <metadata
     id="metadata7">
    <rdf:RDF>
      <cc:Work
         rdf:about="">
        <dc:format>image/svg+xml</dc:format>
        <dc:type
           rdf:resource="http://purl.org/dc/dcmitype/StillImage" />
        <dc:title></dc:title>
      </cc:Work>
    </rdf:RDF>
  </metadata>
  <g
     transform="translate(0,-752.36216)"
     id="layer1">
    <path
       id="path3336"
       d="m 95.964492,996.80377 c 2.020305,-0.33672 4.02527,-0.78397 6.060918,-1.01015 4.77046,-0.53005 2.22407,1.32663 8.08122,-2.02031 0.8269,-0.47251 1.2584,-1.44887 2.0203,-2.0203 0.60234,-0.45176 1.34687,-0.67344 2.02031,-1.01016 0.67343,-0.33671 1.30602,-0.77205 2.0203,-1.01015 0.31944,-0.10648 0.70899,0.15059 1.01016,0 0.42591,-0.21296 0.67343,-0.67343 1.01015,-1.01015 3.46095,-3.46095 0.87635,-0.45043 3.03046,-4.04061 0.62462,-1.04104 1.47736,-1.94458 2.0203,-3.03046 1.01861,-2.03722 0.69634,-3.28547 2.02031,-5.05076 0.57142,-0.76191 1.5303,-1.20365 2.0203,-2.02031 0.54783,-0.91305 0.53396,-2.07807 1.01015,-3.03045 0.54294,-1.08588 1.47737,-1.94458 2.02031,-3.03046 0.47619,-0.95238 0.63628,-2.03346 1.01015,-3.03046 5.06365,-13.50306 -0.35482,2.19288 3.03046,-9.09137 0.61193,-2.03978 1.60266,-3.97268 2.0203,-6.06092 0.26415,-1.32071 -0.29217,-2.72581 0,-4.04061 0.39336,-1.7701 1.6647,-3.27269 2.02031,-5.05076 0.33018,-1.65089 -0.16752,-3.37553 0,-5.05076 0.71815,-7.18147 1.64177,-3.78972 3.03046,-12.12183 0.27678,-1.66068 -0.2381,-3.3841 0,-5.05077 0.10648,-0.74535 0.67343,-1.34687 1.01015,-2.0203 0.33672,-1.68359 0.82055,-3.34434 1.01015,-5.05076 0.14874,-1.33864 -0.16706,-2.70414 0,-4.04061 0.1722,-1.37761 0.62875,-2.70571 1.01015,-4.04061 0.29253,-1.02383 0.87809,-1.97389 1.01016,-3.03046 0.20882,-1.67059 -0.46252,-3.43195 0,-5.05076 0.26164,-0.91574 1.71913,-1.1168 2.0203,-2.02031 0.42592,-1.27775 -0.14874,-2.70198 0,-4.04061 1.42152,-12.7937 0.12668,-0.44336 2.02031,-7.07107 0.47167,-1.65087 0.4073,-3.44315 1.01015,-5.05076 1.57274,-4.19397 1.92736,-1.88089 4.04061,-5.05076 5.7242,-11.4484 -1.01015,0 4.04061,-5.05077 0.85846,-0.85846 1.39568,-1.98941 2.0203,-3.03045 0.38738,-0.64563 0.33672,-1.68359 1.01016,-2.02031 0.90351,-0.45175 2.03992,0.19811 3.03045,0 2.73613,-0.54722 1.65996,-1.60206 4.04062,-3.03046 0.91305,-0.54783 2.07807,-0.53396 3.03045,-1.01015 1.08588,-0.54294 1.94458,-1.47736 3.03046,-2.0203 0.95238,-0.47619 2.03346,-0.63628 3.03046,-1.01016 1.69782,-0.63668 3.30137,-1.5432 5.05076,-2.0203 1.976,-0.53891 4.0739,-0.5134 6.06092,-1.01015 2.8293,-0.70733 8.29998,-2.8356 11.11167,-4.04061 1.76777,-0.75762 4.54569,-2.52539 6.06092,-3.03046 0.63888,-0.21296 1.36698,0.16333 2.0203,0 1.46089,-0.36522 2.56401,-1.72499 4.04061,-2.02031 0.99054,-0.1981 2.03405,0.16607 3.03046,0 1.05031,-0.17505 1.98015,-0.8351 3.03046,-1.01015 0.99641,-0.16607 2.0203,0 3.03046,0 2.69374,0 5.38748,0 8.08122,0"
       style="fill:none;fill-rule:evenodd;stroke:#000000;stroke-width:1px;stroke-linecap:butt;stroke-linejoin:miter;stroke-opacity:1" />
    <path
       id="path3338"
       d="m 139.40105,952.35706 c 2.70442,-2.87464 6.15958,-0.1725 9.09137,-1.01015 1.44791,-0.41369 2.69374,-1.34687 4.04061,-2.02031 0.67344,-0.33672 1.37468,-0.62278 2.02031,-1.01015 1.04104,-0.62463 1.8937,-1.59403 3.03046,-2.02031 1.60761,-0.60285 3.47265,-0.33382 5.05076,-1.01015 0.87538,-0.37516 1.2584,-1.44888 2.0203,-2.0203 0.60234,-0.45176 1.41797,-0.5584 2.02031,-1.01016 0.7619,-0.57143 1.20365,-1.53031 2.02031,-2.0203 0.91305,-0.54783 2.1174,-0.46232 3.03045,-1.01016 0.81666,-0.48999 1.20365,-1.5303 2.02031,-2.0203 0.91305,-0.54783 2.07807,-0.53396 3.03046,-1.01015 1.08588,-0.54294 1.94457,-1.47737 3.03045,-2.02031 0.95238,-0.47619 2.17863,-0.37127 3.03046,-1.01015 0.60234,-0.45175 0.59251,-1.39384 1.01015,-2.02031 0.7103,-1.06545 3.56708,-2.79369 4.04061,-3.03045 0.30117,-0.15059 0.67344,0 1.01016,0 1.01015,-0.67344 2.17199,-1.16184 3.03045,-2.02031 0.2381,-0.23809 -0.18677,-0.72998 0,-1.01015 0.52829,-0.79243 1.44888,-1.2584 2.02031,-2.02031 0.45175,-0.60233 0.5398,-1.43237 1.01015,-2.0203 0.89242,-1.11553 2.23803,-1.84182 3.03046,-3.03046 0.59064,-0.88596 0.53396,-2.07808 1.01015,-3.03046 2.07277,-4.14554 1.5351,-1.91888 4.04061,-5.05076 0.75841,-0.94801 1.39568,-1.98942 2.02031,-3.03046 0.38737,-0.64562 0.5398,-1.43237 1.01015,-2.0203 0.89242,-1.11553 2.23803,-1.84182 3.03046,-3.03046 0.59064,-0.88596 0.67343,-2.0203 1.01015,-3.03046 0.67343,-1.01015 1.26189,-2.08244 2.0203,-3.03045 1.1899,-1.48737 2.89776,-2.51681 4.04061,-4.04061 0.45176,-0.60234 0.67344,-1.34687 1.01016,-2.02031 1.01015,-1.01015 2.13803,-1.91493 3.03045,-3.03046 0.47035,-0.58793 0.62278,-1.37468 1.01016,-2.0203 0.62462,-1.04104 1.26189,-2.08244 2.0203,-3.03046 0.59495,-0.74368 1.49202,-1.22788 2.02031,-2.02031 0.18677,-0.28016 -0.10648,-0.69071 0,-1.01015 0.47619,-1.42857 1.54411,-2.61204 2.0203,-4.04061 0.10648,-0.31944 -0.15058,-0.70898 0,-1.01015 0.21296,-0.42592 0.74601,-0.61394 1.01016,-1.01015 0.41764,-0.62647 0.5925,-1.39384 1.01015,-2.02031 0.26414,-0.39621 0.85957,-0.5584 1.01015,-1.01015 0.15414,-0.46241 0,-4.48694 0,-5.05076 0,-0.67344 -0.21296,-1.38143 0,-2.02031 0.15058,-0.45175 0.85957,-0.5584 1.01015,-1.01015 0.26325,-0.78973 -0.27794,-5.50503 0,-6.06092 0.21296,-0.42591 0.7972,-0.58423 1.01016,-1.01015 0.15058,-0.30117 0,-0.67343 0,-1.01015 0,-0.67344 0,-1.34687 0,-2.02031 0,-2.69374 0,-5.38748 0,-8.08122"
       style="fill:none;fill-rule:evenodd;stroke:#000000;stroke-width:1px;stroke-linecap:butt;stroke-linejoin:miter;stroke-opacity:1" />
    <path
       id="path3340"
       d="m 145.46197,943.26569 c 2.92985,-14.64927 -1.13131,2.32318 3.03045,-8.08123 0.25011,-0.62526 -0.30117,-1.41796 0,-2.0203 0.42592,-0.85184 1.44888,-1.2584 2.02031,-2.02031 0.45175,-0.60233 0.59251,-1.39383 1.01015,-2.0203 0.26414,-0.39621 0.89466,-0.54818 1.01015,-1.01015 0,-7.70609 -0.9035,0.34511 2.02031,-4.04061 0.37355,-0.56034 -0.37356,-1.45998 0,-2.02031 0.41765,-0.62647 1.60266,-0.38368 2.0203,-1.01015 0.37356,-0.56033 -0.37355,-1.45997 0,-2.02031 0.41765,-0.62647 1.56856,-0.40781 2.02031,-1.01015 0.63888,-0.85183 0.37128,-2.17862 1.01015,-3.03046 0.45176,-0.60233 1.48791,-0.47775 2.02031,-1.01015 0.53239,-0.5324 0.47775,-1.48791 1.01015,-2.0203 0.85846,-0.85847 2.17199,-1.16184 3.03046,-2.02031 0.85846,-0.85846 1.26189,-2.08244 2.0203,-3.03046 0.59495,-0.74368 1.34687,-1.34687 2.02031,-2.0203 0.67343,-0.67344 1.27662,-1.42536 2.0203,-2.02031 1.18955,-0.95163 4.23776,-2.41459 5.05077,-4.04061 0.30116,-0.60234 -0.37356,-1.45997 0,-2.0203 0.41764,-0.62647 1.4879,-0.47776 2.0203,-1.01015 0.5324,-0.5324 0.47776,-1.48791 1.01015,-2.02031 0.5324,-0.5324 1.56855,-0.40781 2.02031,-1.01015 0.63887,-0.85184 0.37127,-2.17862 1.01015,-3.03046 0.45175,-0.60234 1.48791,-0.47776 2.02031,-1.01015 0.53239,-0.5324 0.62277,-1.37468 1.01015,-2.02031 0.62462,-1.04104 1.26189,-2.08244 2.0203,-3.03046 2.50551,-3.13188 1.96784,-0.90521 4.04061,-5.05076 2.86161,-8.58481 -1.12938,1.88231 3.03046,-5.05076 0.54783,-0.91305 0.37128,-2.17862 1.01015,-3.03046 0.45176,-0.60234 1.60266,-0.38368 2.02031,-1.01015 0.37355,-0.56033 -0.37356,-1.45997 0,-2.02031 0.41765,-0.62647 1.60266,-0.38368 2.0203,-1.01015 0.37356,-0.56033 -0.37355,-1.45997 0,-2.0203 0.41765,-0.62647 1.48791,-0.47776 2.02031,-1.01016 0.23809,-0.23809 0,-0.67343 0,-1.01015 0.67343,-0.33672 1.39383,-0.5925 2.0203,-1.01015 2.00118,0.10083 0.47776,-1.48791 1.01016,-2.02031 0.53239,-0.53239 1.39383,-0.5925 2.0203,-1.01015 2.32069,-1.54713 -0.43315,-0.577 2.02031,-3.03046 0.23809,-0.23809 0.70898,0.15059 1.01015,0 4.20401,-2.102 -1.07989,0.0697 1.01015,-2.0203 0.47619,-0.47619 1.38143,0.21296 2.02031,0 1.83466,-0.61156 1.87469,-0.86454 3.03045,-2.02031"
       style="fill:none;fill-rule:evenodd;stroke:#000000;stroke-width:1px;stroke-linecap:butt;stroke-linejoin:miter;stroke-opacity:1" />
    <path
       id="path3342"
       d="m 188.89853,874.57531 c 0,-16.51596 -0.57167,-0.039 1.01015,-11.11168 0.14286,-1 -0.16607,-2.03405 0,-3.03045 0.3501,-2.10062 1.6702,-3.96031 2.0203,-6.06092 0.054,-0.32401 -0.0555,-5.89446 0,-6.06091 0.10648,-0.31944 0.67344,0 1.01016,0"
       style="fill:none;fill-rule:evenodd;stroke:#000000;stroke-width:1px;stroke-linecap:butt;stroke-linejoin:miter;stroke-opacity:1" />
    <path
       id="path3344"
       d="m 184.85792,899.82913 c 5.72419,0 11.44839,0 17.17259,0"
       style="fill:none;fill-rule:evenodd;stroke:#000000;stroke-width:1px;stroke-linecap:butt;stroke-linejoin:miter;stroke-opacity:1" />
    <path
       id="path3346"
       d="m 161.62441,912.96111 c 0,-1.34687 -0.13402,-2.70043 0,-4.04061 0.2038,-2.03801 0.84006,-4.01982 1.01015,-6.06092 0.16778,-2.01332 0,-4.04061 0,-6.06091 0,-2.69374 0,-5.38748 0,-8.08122 0,-1.01015 0,-2.02031 0,-3.03046 0,-0.67344 -0.67344,-2.02031 0,-2.02031 0.67343,0 0,1.34687 0,2.02031"
       style="fill:none;fill-rule:evenodd;stroke:#000000;stroke-width:1px;stroke-linecap:butt;stroke-linejoin:miter;stroke-opacity:1" />
    <path
       id="path3348"
       d="m 161.62441,929.12355 c 2.90279,-1.18339 6.14629,-1.03861 9.09137,-2.02031 1.42857,-0.47619 2.61204,-1.54411 4.04061,-2.0203 3.36718,-1.12239 0.84179,1.68359 5.05076,0 0.88427,-0.35371 1.20365,-1.53031 2.02031,-2.02031 0.91305,-0.54783 2.04182,-0.61469 3.03046,-1.01015 0.69907,-0.27963 1.282,-0.86249 2.0203,-1.01015 0.99054,-0.19811 2.02031,0 3.03046,0"
       style="fill:none;fill-rule:evenodd;stroke:#000000;stroke-width:1px;stroke-linecap:butt;stroke-linejoin:miter;stroke-opacity:1" />
  </g>
</svg>
